SplineFontDB: 3.2
FontName: glyph
FullName: glyph
FamilyName: glyph
Weight: Regular
ItalicAngle: 0
UnderlinePosition: 0
UnderlineWidth: 0
Ascent: 960
Descent: 64
InvalidEm: 0
LayerCount: 2
Layer: 0 0 "Back" 1
Layer: 1 0 "Fore" 0
XUID: [1021 547 -1589631929 15456617]
OS2Version: 0
OS2_WeightWidthSlopeOnly: 0
OS2_UseTypoMetrics: 0
CreationTime: 1564434003
ModificationTime: 1570361021
PfmFamily: 17
TTFWeight: 400
TTFWidth: 5
LineGap: 92
VLineGap: 92
OS2TypoAscent: 0
OS2TypoAOffset: 1
OS2TypoDescent: 0
OS2TypoDOffset: 1
OS2TypoLinegap: 92
OS2WinAscent: 0
OS2WinAOffset: 1
OS2WinDescent: 0
OS2WinDOffset: 1
HheadAscent: 0
HheadAOffset: 1
HheadDescent: 0
HheadDOffset: 1
OS2Vendor: 'PfEd'
DEI: 91125
Encoding: Custom
UnicodeInterp: none
NameList: AGL For New Fonts
DisplaySize: -48
AntiAlias: 1
FitToEm: 0
WinInfo: 0 19 12
BeginChars: 45 45

StartChar: share-diaspora
Encoding: 2 42 2
Width: 1024
LayerCount: 2
Fore
SplineSet
430.184 820.364 m 1
 429.414 548.998 l 1
 171.046 632.124 l 1
 120.448 476.406 l 1
 378.276 391.828 l 1
 219.41 171.826 l 1
 351.9 75.634 l 1
 511.996 294.71 l 1
 672.092 75.634 l 1
 804.582 171.826 l 1
 645.716 391.828 l 1
 903.544 476.406 l 1
 852.948 632.124 l 1
 594.582 548.998 l 1
 593.812 820.364 l 1
 430.184 820.364 l 1
EndSplineSet
EndChar

StartChar: go-previous
Encoding: 3 60 3
Width: 1024
LayerCount: 2
Fore
SplineSet
665.274 820.364 m 1
 292.91 448 l 1
 665.274 75.636 l 1
 698.182 108.544 l 1
 358.728 448 l 1
 698.182 787.454 l 1
 665.274 820.364 l 1
EndSplineSet
EndChar

StartChar: hamburger
Encoding: 4 61 4
Width: 1024
LayerCount: 2
Fore
SplineSet
139.636 820.364 m 1
 884.362 820.364 l 1
 884.362 727.272 l 1
 139.636 727.272 l 1
 139.636 820.364 l 1
139.636 168.726 m 1
 232.726 168.726 l 1
 232.726 75.636 l 1
 139.634 75.636 l 1
 139.634 168.724 l 1
 139.636 168.726 l 1
139.636 494.546 m 1
 884.362 494.546 l 1
 884.362 401.458 l 1
 139.636 401.458 l 1
 139.636 494.546 l 1
791.274 168.726 m 1
 884.366 168.726 l 1
 884.366 75.636 l 1
 791.274 75.636 l 1
 791.274 168.724 l 1
 791.274 168.726 l 1
465.454 168.726 m 1
 558.544 168.726 l 1
 558.544 75.636 l 1
 465.452 75.636 l 1
 465.452 168.724 l 1
 465.454 168.726 l 1
EndSplineSet
EndChar

StartChar: go-next
Encoding: 5 62 5
Width: 1024
LayerCount: 2
Fore
SplineSet
358.726 820.364 m 1
 325.818 787.456 l 1
 665.272 448 l 1
 325.818 108.546 l 1
 358.726 75.638 l 1
 731.09 448.002 l 1
 358.726 820.366 l 1
 358.726 820.364 l 1
EndSplineSet
EndChar

StartChar: share-facebook
Encoding: 6 70 6
Width: 1024
LayerCount: 2
Fore
SplineSet
761.678 75.636 m 1
 599.322 75.636 l 1
 599.322 426.134 l 1
 512 426.134 l 1
 512 568.48 l 1
 599.322 568.48 l 1
 599.322 643.596 l 2
 599.322 754.444 645.116 820.366 775.254 820.366 c 2
 883.606 820.366 l 1
 883.606 684.472 l 1
 815.88 684.472 l 2
 765.212 684.472 761.876 665.482 761.876 630.032 c 2
 761.67 568.48 l 1
 884.358 568.48 l 1
 870.002 426.134 l 1
 761.67 426.134 l 1
 761.678 75.636 l 1
EndSplineSet
EndChar

StartChar: share-gplus
Encoding: 7 71 7
Width: 1024
LayerCount: 2
Fore
SplineSet
372.364 680.726 m 1
 243.832 680.726 139.636 576.528 139.636 448 c 0
 139.636 319.472 243.832 215.274 372.364 215.274 c 0
 500.896 215.274 605.092 319.472 605.092 448 c 0
 605.084 463.634 603.5 479.226 600.366 494.546 c 1
 372.366 494.546 l 1
 372.366 401.456 l 1
 503.822 401.456 l 1
 484.12 345.732 431.472 308.45 372.366 308.364 c 0
 295.246 308.364 232.728 370.878 232.73 448 c 0
 232.732 525.122 295.248 587.636 372.366 587.636 c 0
 409.38 587.636 444.856 572.836 471.002 546.634 c 1
 536.82 612.454 l 1
 493.22 656.114 434.068 680.67 372.364 680.728 c 1
 372.364 680.726 l 1
744.726 587.636 m 1
 744.726 494.546 l 1
 651.634 494.546 l 1
 651.634 401.456 l 1
 744.726 401.456 l 1
 744.726 308.364 l 1
 837.818 308.364 l 1
 837.818 401.456 l 1
 930.91 401.456 l 1
 930.91 494.548 l 1
 837.818 494.548 l 1
 837.818 587.64 l 1
 744.726 587.636 l 1
EndSplineSet
EndChar

StartChar: go-home
Encoding: 8 72 8
Width: 1024
LayerCount: 2
Fore
SplineSet
512 820.364 m 1
 139.636 448 l 1
 172.544 415.092 l 1
 186.18 428.728 l 1
 186.18 75.636 l 1
 837.816 75.636 l 1
 837.816 428.728 l 1
 851.452 415.092 l 1
 884.36 448 l 1
 744.724 587.636 l 1
 744.724 727.272 l 1
 605.088 727.272 l 1
 511.996 820.364 l 1
 512 820.364 l 1
512 754.544 m 1
 791.274 475.27 l 1
 791.274 122.178 l 1
 605.092 122.178 l 1
 605.092 354.904 l 1
 418.91 354.904 l 1
 418.91 122.178 l 1
 232.728 122.178 l 1
 232.728 475.27 l 1
 512.002 754.544 l 1
 512 754.544 l 1
EndSplineSet
EndChar

StartChar: info
Encoding: 9 73 9
Width: 1024
LayerCount: 2
Fore
SplineSet
465.454 680.726 m 1
 558.544 680.726 l 1
 558.544 587.634 l 1
 465.452 587.634 l 1
 465.452 680.726 l 1
 465.454 680.726 l 1
465.454 541.092 m 1
 558.544 541.092 l 1
 558.544 215.274 l 1
 465.452 215.274 l 1
 465.452 541.092 l 1
 465.454 541.092 l 1
512 820.364 m 0
 305.712 820.364 139.636 654.29 139.636 448 c 0
 139.636 241.71 305.71 75.636 512 75.636 c 0
 718.288 75.636 884.364 241.71 884.364 448 c 0
 884.364 654.29 718.29 820.364 512 820.364 c 0
512 773.818 m 0
 692.502 773.818 837.818 628.504 837.818 448 c 0
 837.818 267.496 692.502 122.182 512 122.182 c 0
 331.498 122.182 186.182 267.498 186.182 448 c 0
 186.182 628.502 331.496 773.818 512 773.818 c 0
EndSplineSet
EndChar

StartChar: share-peertube
Encoding: 10 74 10
Width: 745
Flags: W
LayerCount: 2
Fore
SplineSet
1.564 944.173 m 1
 1.564 447.673 l 1
 373.928 695.9 l 1
 1.564 944.173 l 1
1.564 447.673 m 1
 1.564 -48.827 l 1
 373.928 199.4 l 1
 1.564 447.673 l 1
373.928 695.946 m 1
 373.928 199.446 l 1
 746.292 447.673 l 1
 373.928 695.946 l 1
EndSplineSet
EndChar

StartChar: logo-kde
Encoding: 11 75 11
Width: 1024
LayerCount: 2
Fore
SplineSet
543.856 820.364 m 1
 420.096 808.448 l 1
 420.096 298.52 l 1
 542.636 316.934 l 1
 542.636 534.39 l 1
 707.288 293.238 l 1
 836.462 334.132 l 1
 667.75 566.076 l 1
 837.818 784.752 l 1
 705.934 815.082 l 1
 542.636 596.406 l 1
 543.852 820.364 l 1
 543.856 820.364 l 1
263.166 696.064 m 2
 261.766 696.064 260.426 695.366 259.376 694.294 c 2
 210.766 645.682 l 2
 208.722 643.634 208.312 640.446 209.818 637.966 c 2
 266.688 544.264 l 1
 256.594 527.298 248.504 509.002 242.722 489.7 c 1
 138.326 467.898 l 2
 135.418 467.292 133.316 464.778 133.316 461.81 c 2
 133.316 393.02 l 2
 133.316 390.134 135.254 387.606 138.056 386.928 c 2
 239.474 362.152 l 1
 244.882 339.796 253.312 318.53 264.388 299.05 c 1
 205.624 209.548 l 2
 203.984 207.034 204.32 203.804 206.436 201.696 c 2
 255.046 153.09 l 2
 257.09 151.09 260.272 150.624 262.764 152.158 c 2
 354.838 208.082 l 1
 372.906 197.65 392.332 189.408 412.926 183.842 c 1
 434.32 80.664 l 2
 434.924 77.732 437.584 75.656 440.548 75.656 c 2
 509.332 75.656 l 2
 512.222 75.656 514.736 77.656 515.424 80.53 c 2
 540.608 183.842 l 1
 561.838 189.572 581.948 198.126 600.458 209.028 c 1
 691.178 149.586 l 2
 693.672 147.956 696.916 148.284 699.03 150.378 c 2
 747.64 198.99 l 2
 749.694 201.038 750.096 204.236 748.588 206.706 c 2
 715.414 261.276 l 1
 704.716 257.878 l 2
 703.154 257.366 701.436 257.874 700.518 259.228 c 2
 700.518 259.228 679.436 290.152 652.18 330.046 c 1
 619.594 266.268 553.256 222.67 476.696 222.67 c 0
 367.926 222.67 279.818 310.77 279.818 419.548 c 0
 279.818 499.57 327.478 568.4 395.994 599.226 c 1
 395.994 650.002 l 1
 383.524 645.626 371.562 640.4 360.112 634.158 c 0
 360.102 634.168 360.028 634.144 359.988 634.158 c 2
 267.236 695.09 l 2
 265.986 695.882 264.572 696.208 263.174 696.066 c 2
 263.166 696.064 l 2
EndSplineSet
EndChar

StartChar: logo-plasmamobile
Encoding: 12 77 12
Width: 1024
LayerCount: 2
Fore
SplineSet
232.728 820.364 m 1
 232.728 75.638 l 1
 698.184 75.638 l 1
 698.184 820.364 l 1
 232.73 820.364 l 1
 232.728 820.364 l 1
279.274 727.274 m 1
 651.638 727.274 l 1
 651.638 168.73 l 1
 279.274 168.73 l 1
 279.274 727.274 l 1
405.636 587.636 m 2
 405.622 587.636 405.602 587.636 405.584 587.636 c 0
 394.582 587.636 385.658 578.728 385.636 567.73 c 0
 385.636 567.712 385.636 567.694 385.636 567.676 c 0
 385.636 556.66 394.566 547.728 405.584 547.728 c 0
 405.602 547.728 405.62 547.728 405.64 547.728 c 0
 416.638 547.75 425.546 556.672 425.546 567.676 c 0
 425.546 567.694 425.546 567.712 425.546 567.73 c 0
 425.524 578.714 416.622 587.614 405.64 587.636 c 2
 405.636 587.636 l 2
505.364 587.636 m 1
 465.456 547.728 l 1
 525.274 487.91 l 1
 465.456 428.092 l 1
 505.364 388.184 l 1
 605.09 487.91 l 1
 505.364 587.636 l 1
355.726 487.908 m 2
 339.212 487.9 325.824 474.514 325.818 458 c 0
 325.826 441.484 339.212 428.098 355.726 428.09 c 0
 372.242 428.096 385.628 441.484 385.636 457.998 c 0
 385.628 474.514 372.242 487.9 355.728 487.908 c 2
 355.726 487.908 l 2
415.546 368.182 m 2
 399.032 368.176 385.644 354.788 385.638 338.274 c 0
 385.646 321.758 399.032 308.372 415.546 308.364 c 0
 415.57 308.364 415.596 308.364 415.626 308.364 c 0
 432.148 308.364 445.542 321.754 445.548 338.272 c 0
 445.54 354.792 432.146 368.182 415.626 368.182 c 0
 415.6 368.182 415.57 368.182 415.544 368.182 c 2
 415.546 368.182 l 2
EndSplineSet
EndChar

StartChar: neon
Encoding: 13 78 13
Width: 1024
LayerCount: 2
Fore
SplineSet
511.613 959.218 m 1
 498.498 959.212 487.298 951.022 482.841 939.478 c 2
 482.769 939.267 l 1
 367.362 931.954 263.901 886.03 183.937 814.406 c 2
 184.406 814.819 l 2
 180.84 816.393 176.684 817.315 172.313 817.328 c 2
 172.308 817.328 l 2
 155.272 817.328 141.462 803.518 141.462 786.482 c 1
 141.462 786.482 l 1
 141.463 782.178 142.346 778.08 143.939 774.36 c 2
 143.862 774.561 l 1
 72.673 695.005 26.795 591.472 19.644 477.436 c 2
 19.573 476.017 l 1
 7.799 471.505 -0.412 460.303 -0.429 447.181 c 2
 -0.429 447.179 l 2
 -0.422 434.049 7.788 422.838 19.354 418.393 c 2
 19.565 418.322 l 1
 26.545 302.651 72.357 198.853 144.003 118.616 c 2
 143.58 119.098 l 2
 142.241 115.771 141.463 111.914 141.462 107.876 c 2
 141.462 107.875 l 2
 141.462 90.839 155.272 77.029 172.308 77.029 c 1
 172.308 77.029 l 1
 176.385 77.039 180.272 77.838 183.829 79.282 c 2
 183.622 79.208 l 1
 263.348 7.772 367.181 -38.225 481.552 -45.27 c 2
 482.949 -45.339 l 1
 487.586 -56.861 498.664 -64.848 511.61 -64.861 c 2
 511.612 -64.861 l 2
 524.727 -64.855 535.927 -56.665 540.384 -45.121 c 2
 540.456 -44.91 l 1
 656.137 -37.921 759.94 7.907 840.175 79.57 c 2
 839.694 79.148 l 2
 843.021 77.809 846.878 77.031 850.916 77.03 c 2
 850.917 77.03 l 2
 867.953 77.03 881.763 90.84 881.763 107.876 c 1
 881.763 107.876 l 1
 881.753 111.953 880.954 115.84 879.51 119.397 c 2
 879.584 119.19 l 1
 951.02 198.915 997.017 302.749 1004.062 417.12 c 2
 1004.131 418.517 l 1
 1015.653 423.154 1023.64 434.232 1023.653 447.178 c 2
 1023.653 447.18 l 2
 1023.647 460.295 1015.457 471.495 1003.913 475.952 c 2
 1003.702 476.024 l 1
 996.713 591.705 950.885 695.508 879.222 775.743 c 2
 879.644 775.262 l 2
 880.983 778.589 881.761 782.446 881.762 786.484 c 2
 881.762 786.485 l 2
 881.762 803.521 867.952 817.331 850.916 817.331 c 1
 850.916 817.331 l 1
 846.839 817.321 842.952 816.522 839.395 815.078 c 2
 839.602 815.152 l 1
 759.876 886.588 656.043 932.585 541.672 939.63 c 2
 540.275 939.699 l 1
 535.638 951.221 524.56 959.208 511.614 959.221 c 2
 511.612 959.221 l 1
 511.613 959.218 l 1
483.833 915.051 m 2
 488.915 904.613 499.437 897.543 511.611 897.527 c 2
 511.613 897.527 l 2
 523.643 897.534 534.062 904.427 539.141 914.477 c 2
 539.222 914.653 l 1
 648.546 908.01 746.677 864.865 822.711 797.374 c 2
 822.227 797.796 l 2
 820.864 794.444 820.073 790.556 820.07 786.483 c 2
 820.07 786.482 l 2
 820.07 769.446 833.88 755.636 850.916 755.636 c 1
 850.916 755.636 l 1
 854.933 755.647 858.765 756.425 862.279 757.83 c 2
 862.071 757.757 l 1
 929.301 682.315 972.627 584.27 979.417 476.311 c 2
 979.485 474.959 l 1
 969.047 469.877 961.977 459.355 961.961 447.181 c 2
 961.961 447.179 l 2
 961.968 435.149 968.861 424.73 978.911 419.651 c 2
 979.087 419.57 l 1
 972.444 310.247 929.299 212.115 861.808 136.081 c 2
 862.229 136.565 l 2
 858.877 137.928 854.989 138.719 850.916 138.722 c 2
 850.915 138.722 l 2
 833.879 138.722 820.069 124.912 820.069 107.876 c 1
 820.069 107.876 l 1
 820.08 103.859 820.858 100.027 822.263 96.513 c 2
 822.19 96.721 l 1
 746.748 29.491 648.703 -13.835 540.744 -20.625 c 2
 539.392 -20.693 l 1
 534.31 -10.255 523.788 -3.185 511.614 -3.169 c 2
 511.612 -3.169 l 2
 499.582 -3.176 489.163 -10.069 484.083 -20.119 c 2
 484.002 -20.295 l 1
 374.678 -13.652 276.547 29.493 200.513 96.984 c 2
 200.997 96.562 l 2
 202.36 99.914 203.151 103.802 203.154 107.875 c 2
 203.154 107.876 l 2
 203.154 124.912 189.344 138.722 172.308 138.722 c 1
 172.308 138.722 l 1
 168.291 138.711 164.459 137.933 160.945 136.528 c 2
 161.153 136.601 l 1
 94.032 212.135 50.837 310.262 44.213 418.277 c 2
 44.148 419.599 l 1
 54.361 424.759 61.246 435.163 61.263 447.177 c 2
 61.263 447.179 l 2
 61.257 459.206 54.368 469.623 44.322 474.705 c 2
 44.146 474.786 l 1
 51.018 584.098 94.357 682.141 162.009 758.043 c 2
 161.601 757.577 l 2
 164.781 756.356 168.46 755.645 172.305 755.637 c 2
 172.308 755.637 l 2
 189.344 755.637 203.154 769.447 203.154 786.483 c 1
 203.154 786.483 l 1
 203.141 790.433 202.388 794.203 201.026 797.667 c 2
 201.099 797.458 l 1
 276.506 864.741 374.525 908.126 482.469 914.983 c 2
 483.832 915.052 l 1
 483.833 915.051 l 2
511.613 811.158 m 2
 498.498 811.152 487.298 802.962 482.841 791.418 c 2
 482.769 791.207 l 1
 304.871 775.857 166.268 627.724 166.139 447.191 c 2
 166.139 447.178 l 2
 166.243 266.599 304.877 118.432 481.52 103.19 c 2
 482.81 103.1 l 1
 487.348 91.378 498.525 83.213 511.61 83.197 c 2
 511.612 83.197 l 2
 524.727 83.203 535.927 91.393 540.384 102.937 c 2
 540.456 103.148 l 1
 718.354 118.498 856.958 266.631 857.086 447.164 c 2
 857.086 447.177 l 2
 856.982 627.756 718.347 775.923 541.705 791.165 c 2
 540.416 791.255 l 1
 535.878 802.977 524.701 811.141 511.616 811.158 c 2
 511.614 811.158 l 1
 511.613 811.158 l 2
539.223 766.593 m 1
 704.045 751.93 832.307 614.548 832.41 447.188 c 2
 832.41 447.178 l 2
 832.298 279.804 704.023 142.425 540.42 127.865 c 2
 539.194 127.777 l 1
 534.034 137.989 523.629 144.873 511.616 144.889 c 2
 511.614 144.889 l 2
 499.584 144.882 489.165 137.989 484.085 127.939 c 2
 484.004 127.763 l 1
 319.182 142.426 190.92 279.808 190.817 447.168 c 2
 190.817 447.178 l 2
 190.929 614.552 319.203 751.931 482.806 766.491 c 2
 484.033 766.579 l 1
 489.193 756.366 499.598 749.483 511.611 749.467 c 2
 511.613 749.467 l 2
 523.643 749.474 534.062 756.367 539.141 766.417 c 2
 539.222 766.593 l 1
 539.223 766.593 l 1
634.996 447.178 m 0
 634.996 379.035 579.755 323.795 511.613 323.795 c 0
 443.471 323.795 388.23 379.036 388.23 447.178 c 0
 388.23 515.321 443.471 570.561 511.613 570.561 c 0
 579.755 570.561 634.996 515.32 634.996 447.178 c 0
EndSplineSet
EndChar

StartChar: logo-plasma
Encoding: 14 80 14
Width: 1024
LayerCount: 2
Fore
SplineSet
618.39 288.404 m 1
 512 394.794 l 1
 671.584 554.378 l 1
 512 713.962 l 1
 618.39 820.352 l 1
 884.364 554.378 l 1
 618.39 288.404 l 1
458.806 155.432 m 0
 458.806 111.364 423.082 75.64 379.014 75.64 c 0
 334.946 75.64 299.222 111.364 299.222 155.432 c 0
 299.222 199.5 334.946 235.224 379.014 235.224 c 0
 423.082 235.224 458.806 199.5 458.806 155.432 c 0
299.222 474.586 m 0
 299.222 430.518 263.498 394.794 219.43 394.794 c 0
 175.362 394.794 139.638 430.518 139.638 474.586 c 0
 139.638 518.654 175.362 554.378 219.43 554.378 c 0
 263.498 554.378 299.222 518.654 299.222 474.586 c 0
405.61 767.158 m 0
 405.61 737.778 381.794 713.962 352.416 713.962 c 0
 323.038 713.962 299.222 737.778 299.222 767.158 c 0
 299.222 796.538 323.038 820.352 352.416 820.352 c 0
 381.794 820.352 405.61 796.536 405.61 767.158 c 0
EndSplineSet
EndChar

StartChar: search
Encoding: 15 81 15
Width: 1024
LayerCount: 2
Fore
SplineSet
416 832 m 0
 256.448 832 128 703.552 128 544 c 0
 128 384.448 256.448 256 416 256 c 0
 575.552 256 704 384.448 704 544 c 0
 704 703.552 575.552 832 416 832 c 0
416 768 m 0
 540.096 768 640 668.096 640 544 c 0
 640 419.904 540.096 320 416 320 c 0
 291.904 320 192 419.904 192 544 c 0
 192 668.096 291.904 768 416 768 c 0
576.004 338.742 m 1
 621.258 383.996 l 1
 896 109.254 l 1
 850.746 64 l 1
 576.004 338.742 l 1
EndSplineSet
EndChar

StartChar: share-reddit
Encoding: 16 82 16
Width: 1024
LayerCount: 2
Fore
SplineSet
554.364 846.544 m 1
 491.09 633.088 l 1
 423.22 630.446 357.432 615.748 301.182 589.18 c 1
 279.18 617.516 245.334 634.124 209.454 634.18 c 0
 145.188 634.18 93.09 582.082 93.09 517.816 c 0
 93.112 478.896 112.592 442.558 144.998 420.998 c 1
 141.468 406.854 139.674 392.53 139.634 378.18 c 0
 139.634 236.794 306.346 122.18 511.998 122.18 c 0
 717.65 122.18 884.362 236.794 884.362 378.18 c 0
 884.228 392.506 882.34 406.796 878.726 420.906 c 1
 911.264 442.42 930.856 478.81 930.908 517.814 c 0
 930.908 582.078 878.81 634.178 814.544 634.178 c 0
 778.54 634.164 744.568 617.476 722.544 588.996 c 1
 667.834 614.908 604.036 629.526 538.088 632.814 c 1
 585.996 794.27 l 1
 735.088 769.906 l 1
 742.724 815.814 l 1
 554.36 846.54 l 1
 554.364 846.544 l 1
832 845.092 m 0
 793.44 845.096 762.182 813.838 762.182 775.274 c 0
 762.182 736.716 793.442 705.456 832 705.456 c 0
 870.558 705.456 901.818 736.716 901.818 775.274 c 0
 901.818 813.838 870.558 845.098 832 845.092 c 0
209.456 587.636 m 1
 228.478 587.614 246.668 579.836 259.82 566.092 c 1
 216.354 538.566 183.042 504.318 162.638 466.184 c 1
 148.034 479.384 139.684 498.136 139.638 517.82 c 0
 139.638 556.378 170.898 587.638 209.456 587.638 c 1
 209.456 587.636 l 1
814.274 587.636 m 1
 814.548 587.636 l 2
 853.108 587.636 884.366 556.376 884.366 517.818 c 0
 884.35 498.056 875.958 479.228 861.274 466 c 1
 840.98 504.218 807.726 538.562 764.274 566.182 c 1
 777.354 579.798 795.392 587.54 814.274 587.638 c 1
 814.274 587.636 l 1
372.364 494.546 m 1
 398.07 494.546 418.91 473.708 418.91 448 c 0
 418.91 422.292 398.072 401.456 372.364 401.456 c 0
 346.658 401.456 325.818 422.294 325.818 448.002 c 0
 325.818 473.71 346.656 494.548 372.364 494.548 c 1
 372.364 494.546 l 1
651.636 494.546 m 1
 677.342 494.546 698.18 473.708 698.18 448 c 0
 698.18 422.292 677.34 401.456 651.636 401.456 c 0
 625.93 401.456 605.092 422.294 605.092 448.002 c 0
 605.092 473.71 625.932 494.548 651.636 494.548 c 1
 651.636 494.546 l 1
373.818 308.364 m 1
 373.818 308.364 381.194 292.992 402.544 275.908 c 0
 423.894 258.83 457.966 241.364 511.998 241.364 c 0
 566.03 241.364 600.102 258.832 621.452 275.908 c 0
 642.802 292.99 650.178 308.364 650.178 308.364 c 1
 684.996 291 l 1
 684.996 291 673.002 267.462 645.722 245.636 c 0
 618.444 223.814 574.674 202.454 511.996 202.454 c 0
 449.318 202.454 405.546 223.814 378.27 245.636 c 0
 350.992 267.462 338.996 291 338.996 291 c 1
 373.814 308.364 l 1
 373.818 308.364 l 1
EndSplineSet
EndChar

StartChar: settings
Encoding: 17 83 17
Width: 1024
LayerCount: 2
Fore
SplineSet
535.274 820.364 m 1
 535.274 820.364 l 1
 599.54 820.364 651.638 768.266 651.638 704 c 1
 651.638 704 l 1
 651.638 639.734 599.54 587.636 535.274 587.636 c 1
 535.274 587.636 l 1
 471.008 587.636 418.91 639.734 418.91 704 c 1
 418.91 704 l 1
 418.91 768.266 471.008 820.364 535.274 820.364 c 1
256 308.364 m 0
 191.534 308.364 139.636 256.466 139.636 192 c 0
 139.636 127.534 191.534 75.636 256 75.636 c 0
 320.466 75.636 372.364 127.534 372.364 192 c 0
 372.364 256.466 320.466 308.364 256 308.364 c 0
256 261.818 m 0
 294.678 261.818 325.818 230.678 325.818 192 c 0
 325.818 153.322 294.678 122.182 256 122.182 c 0
 217.32 122.182 186.182 153.322 186.182 192 c 0
 186.182 230.678 217.322 261.818 256 261.818 c 0
139.636 727.274 m 1
 884.362 727.274 l 1
 884.362 680.73 l 1
 139.636 680.73 l 1
 139.636 727.274 l 1
325.818 215.274 m 1
 884.362 215.274 l 1
 884.362 168.73 l 1
 325.818 168.73 l 1
 325.818 215.274 l 1
EndSplineSet
EndChar

StartChar: share-twitter
Encoding: 18 84 18
Width: 1024
LayerCount: 2
Fore
SplineSet
884.346 678.914 m 1
 856.95 666.766 827.5 658.556 796.598 654.864 c 1
 828.138 673.768 852.366 703.704 863.774 739.376 c 1
 834.25 721.868 801.552 709.158 766.75 702.31 c 1
 738.884 731.998 699.176 750.546 655.232 750.546 c 0
 570.854 750.546 502.444 682.152 502.444 597.788 c 0
 502.444 585.816 503.794 574.158 506.396 562.978 c 1
 379.418 569.348 266.836 630.166 191.482 722.584 c 1
 178.328 700.026 170.794 673.782 170.794 645.786 c 0
 170.794 592.786 197.768 546.028 238.766 518.634 c 1
 213.72 519.412 190.16 526.302 169.562 537.74 c 1
 169.548 537.088 169.548 536.488 169.548 535.836 c 0
 169.548 461.822 222.216 400.086 292.106 386.046 c 1
 279.288 382.55 265.792 380.69 251.854 380.69 c 0
 242.01 380.69 232.438 381.662 223.108 383.432 c 1
 242.552 322.744 298.976 278.576 365.834 277.35 c 1
 313.544 236.374 247.666 211.954 176.082 211.954 c 0
 163.75 211.954 151.586 212.68 139.636 214.09 c 1
 207.25 170.748 287.56 145.452 373.844 145.452 c 0
 654.872 145.452 808.552 378.222 808.552 580.094 c 0
 808.552 586.714 808.366 593.302 808.134 599.854 c 1
 837.99 621.392 863.89 648.298 884.372 678.932 c 1
 884.346 678.914 l 1
EndSplineSet
EndChar

StartChar: video
Encoding: 19 86 19
Width: 1024
LayerCount: 2
Fore
SplineSet
93.09 727.274 m 1
 93.09 168.73 l 1
 930.908 168.73 l 1
 930.908 727.274 l 1
 93.09 727.274 l 1
139.636 680.726 m 1
 884.362 680.726 l 1
 884.362 215.27 l 1
 139.636 215.27 l 1
 139.636 680.726 l 1
418.908 587.636 m 1
 418.908 308.364 l 1
 605.09 448 l 1
 418.908 587.636 l 1
EndSplineSet
EndChar

StartChar: window-new
Encoding: 20 87 20
Width: 1024
LayerCount: 2
Fore
SplineSet
139.636 820.364 m 1
 139.636 75.638 l 1
 605.092 75.638 l 1
 605.092 122.182 l 1
 186.184 122.182 l 1
 186.184 634.182 l 1
 837.82 634.182 l 1
 837.82 354.908 l 1
 884.364 354.908 l 1
 884.364 820.364 l 1
 139.638 820.364 l 1
 139.636 820.364 l 1
744.726 308.364 m 1
 744.726 215.272 l 1
 651.634 215.272 l 1
 651.634 168.728 l 1
 744.726 168.728 l 1
 744.726 75.636 l 1
 791.27 75.636 l 1
 791.27 168.728 l 1
 884.362 168.728 l 1
 884.362 215.272 l 1
 791.27 215.272 l 1
 791.27 308.364 l 1
 744.726 308.364 l 1
EndSplineSet
EndChar

StartChar: close
Encoding: 21 88 21
Width: 1024
LayerCount: 2
Fore
SplineSet
172.54 820.372 m 1
 884.374 108.538 l 1
 851.462 75.626 l 1
 139.628 787.46 l 1
 172.54 820.372 l 1
172.54 75.626 m 1
 884.374 787.46 l 1
 851.462 820.372 l 1
 139.628 108.538 l 1
 172.54 75.626 l 1
EndSplineSet
EndChar

StartChar: share-ycombinator
Encoding: 22 89 22
Width: 1024
LayerCount: 2
Fore
SplineSet
465.454 401.456 m 1
 465.454 75.638 l 1
 558.544 75.638 l 1
 558.544 401.456 l 1
 768 820.364 l 1
 651.636 820.364 l 1
 512 541.09 l 1
 372.364 820.364 l 1
 256 820.364 l 1
 465.454 401.456 l 1
EndSplineSet
EndChar

StartChar: cancel
Encoding: 23 92 23
Width: 1024
LayerCount: 2
Fore
SplineSet
512 789.332 m 1
 425.49 789.332 346.824 757.046 286.668 704 c 0
 281.282 699.25 275.744 694.408 270.668 689.334 c 2
 256.002 673.334 l 2
 202.954 613.176 170.67 534.512 170.67 448 c 0
 170.67 259.486 323.49 106.666 512.004 106.666 c 0
 598.514 106.666 677.18 138.952 737.336 191.998 c 2
 753.336 206.666 l 2
 758.412 211.742 763.254 217.28 768.004 222.666 c 0
 821.052 282.824 853.336 361.488 853.336 447.998 c 0
 853.336 636.512 700.516 789.33 512.002 789.33 c 1
 512 789.332 l 1
512 746.668 m 1
 676.95 746.668 810.666 612.95 810.666 448 c 0
 810.666 373.178 782.796 305.738 737.334 253.332 c 1
 317.334 673.332 l 1
 369.738 718.794 437.178 746.664 512.002 746.664 c 1
 512 746.668 l 1
286.666 642.666 m 1
 706.666 222.666 l 1
 654.262 177.204 586.822 149.334 511.998 149.334 c 0
 347.048 149.334 213.332 283.052 213.332 448 c 0
 213.332 522.822 241.204 590.262 286.666 642.666 c 1
EndSplineSet
EndChar

StartChar: go-up
Encoding: 24 94 24
Width: 1024
LayerCount: 2
Fore
SplineSet
172.544 308.364 m 1
 139.636 341.272 l 1
 512 713.636 l 1
 884.364 341.272 l 1
 851.456 308.364 l 1
 512 647.82 l 1
 172.546 308.364 l 1
 172.544 308.364 l 1
EndSplineSet
EndChar

StartChar: matrix-favicon
Encoding: 25 97 25
Width: 1024
LayerCount: 2
Fore
SplineSet
26.978 936.566 m 1
 26.978 -40.566 l 1
 97.28 -40.566 l 1
 97.28 -64 l 1
 0 -64 l 1
 0 960 l 1
 97.28 960 l 1
 97.28 936.566 l 1
 26.978 936.566 l 1
327.483 626.806 m 1
 327.483 577.378 l 1
 328.861 577.378 l 1
 342.055 596.283 358.006 610.855 376.516 621.095 c 0
 395.027 631.532 416.491 636.652 440.516 636.652 c 0
 463.556 636.652 484.627 632.123 503.728 623.261 c 0
 522.829 614.399 537.205 598.449 547.248 575.999 c 1
 558.079 591.95 572.848 606.128 591.359 618.337 c 0
 609.87 630.546 631.925 636.651 657.328 636.651 c 0
 676.626 636.651 694.546 634.288 711.088 629.562 c 0
 727.63 624.836 741.611 617.353 753.426 606.916 c 0
 765.241 596.479 774.3 583.088 780.995 566.35 c 0
 787.493 549.612 790.841 529.525 790.841 505.895 c 2
 790.841 261.513 l 1
 690.607 261.513 l 1
 690.607 468.479 l 2
 690.607 480.688 690.213 492.307 689.229 503.137 c 0
 688.245 513.967 685.684 523.42 681.549 531.297 c 0
 677.217 539.371 671.112 545.672 662.841 550.399 c 0
 654.57 555.126 643.346 557.488 629.364 557.488 c 0
 615.186 557.488 603.764 554.731 595.099 549.414 c 0
 586.434 543.9 579.542 537.008 574.619 528.146 c 0
 569.696 519.481 566.348 509.635 564.773 498.411 c 0
 563.198 487.383 562.213 476.159 562.213 464.934 c 2
 562.213 261.512 l 1
 461.979 261.512 l 1
 461.979 466.312 l 2
 461.979 477.143 461.782 487.777 461.191 498.41 c 0
 460.797 509.044 458.631 518.693 455.086 527.752 c 0
 451.541 536.614 445.634 543.9 437.363 549.217 c 0
 429.092 554.534 417.08 557.291 400.932 557.291 c 0
 396.206 557.291 389.904 556.306 382.224 554.14 c 0
 374.544 551.974 366.864 548.035 359.578 542.128 c 0
 352.292 536.22 345.99 527.753 340.87 516.725 c 0
 335.75 505.697 333.19 491.125 333.19 473.205 c 2
 333.19 261.316 l 1
 232.956 261.316 l 1
 232.956 626.805 l 1
 327.479 626.805 l 1
 327.483 626.806 l 1
997.022 -40.566 m 1
 997.022 936.566 l 1
 926.72 936.566 l 1
 926.72 960 l 1
 1024 960 l 1
 1024 -64 l 1
 926.72 -64 l 1
 926.72 -40.566 l 1
 997.022 -40.566 l 1
EndSplineSet
EndChar

StartChar: check
Encoding: 26 99 26
Width: 1024
LayerCount: 2
Fore
SplineSet
851.45 727.272 m 1
 365.572 235.452 l 1
 172.548 430.836 l 1
 139.634 397.52 l 1
 365.664 168.726 l 1
 398.578 202.042 l 1
 398.484 202.134 l 1
 884.362 693.954 l 1
 851.448 727.27 l 1
 851.45 727.272 l 1
EndSplineSet
EndChar

StartChar: link
Encoding: 27 108 27
Width: 1024
LayerCount: 2
Fore
SplineSet
139.636 634.182 m 2
 113.848 634.182 93.09 613.422 93.09 587.636 c 2
 93.09 308.364 l 2
 93.09 282.576 113.85 261.82 139.636 261.82 c 2
 418.91 261.82 l 2
 444.696 261.82 465.456 282.58 465.456 308.364 c 2
 465.456 354.908 l 1
 558.546 354.908 l 1
 558.546 308.364 l 2
 558.546 282.578 579.306 261.82 605.09 261.82 c 2
 884.364 261.82 l 2
 910.152 261.82 930.908 282.58 930.908 308.364 c 2
 930.908 587.638 l 2
 930.908 613.424 910.148 634.182 884.364 634.182 c 2
 605.09 634.182 l 2
 579.302 634.182 558.546 613.422 558.546 587.638 c 2
 558.546 541.094 l 1
 465.454 541.094 l 1
 465.454 587.638 l 2
 465.454 613.424 444.694 634.182 418.908 634.182 c 2
 139.634 634.182 l 1
 139.636 634.182 l 2
139.636 587.636 m 1
 418.91 587.636 l 1
 418.91 541.092 l 1
 393.124 541.092 372.364 520.332 372.364 494.546 c 2
 372.364 401.456 l 2
 372.364 375.668 393.124 354.912 418.91 354.912 c 1
 418.91 308.368 l 1
 139.636 308.368 l 1
 139.636 587.642 l 1
 139.636 587.636 l 1
605.092 587.636 m 1
 884.366 587.636 l 1
 884.366 308.364 l 1
 605.092 308.364 l 1
 605.092 354.908 l 1
 630.88 354.908 651.636 375.668 651.636 401.452 c 2
 651.636 494.544 l 2
 651.636 520.33 630.876 541.088 605.092 541.088 c 1
 605.092 587.634 l 1
 605.092 587.636 l 1
418.908 494.546 m 1
 605.09 494.546 l 1
 605.09 401.456 l 1
 418.908 401.456 l 1
 418.908 494.548 l 1
 418.908 494.546 l 1
EndSplineSet
EndChar

StartChar: share-mastodon
Encoding: 28 109 28
Width: 955
Flags: W
LayerCount: 2
Fore
SplineSet
934.834 346.122 m 1
 920.793 273.888 809.079 194.835 680.776 179.514 c 0
 613.871 171.531 547.998 164.193 477.756 167.415 c 0
 362.881 172.678 272.236 194.835 272.236 194.835 c 1
 272.236 183.652 272.926 173.004 274.305 163.046 c 0
 289.24 49.677 386.72 42.886 479.058 39.719 c 0
 572.257 36.53 655.244 62.697 655.244 62.697 c 1
 659.073 -21.559 l 1
 659.073 -21.559 593.884 -56.564 477.756 -63.003 c 0
 413.72 -66.523 334.209 -61.392 241.6 -36.88 c 0
 40.748 16.282 6.206 230.38 0.92 447.618 c 0
 -0.691 512.117 0.302 572.937 0.302 623.804 c 0
 0.302 845.941 145.846 911.053 145.846 911.053 c 1
 219.233 944.756 345.159 958.93 476.072 960 c 2
 479.288 960 l 2
 610.201 958.93 736.21 944.757 809.591 911.053 c 1
 809.591 911.053 955.13 845.941 955.13 623.804 c 1
 955.13 623.804 956.956 459.91 934.833 346.122 c 1
 934.834 346.122 l 1
783.459 606.572 m 1
 783.459 337.601 l 1
 676.898 337.601 l 1
 676.898 598.666 l 2
 676.898 653.698 653.743 681.631 607.428 681.631 c 0
 556.219 681.631 530.554 648.496 530.554 582.976 c 2
 530.554 440.08 l 1
 424.622 440.08 l 1
 424.622 582.976 l 2
 424.622 648.496 398.951 681.631 347.742 681.631 c 0
 301.427 681.631 278.272 653.698 278.272 598.666 c 2
 278.272 337.601 l 1
 171.711 337.601 l 1
 171.711 606.572 l 2
 171.711 661.543 185.708 705.227 213.822 737.546 c 0
 242.814 769.865 280.782 786.432 327.914 786.432 c 0
 382.444 786.432 423.739 765.473 451.043 723.549 c 2
 477.585 679.054 l 1
 504.133 723.549 l 2
 531.431 765.473 572.726 786.432 627.262 786.432 c 0
 674.388 786.432 712.356 769.864 741.354 737.546 c 0
 769.463 705.227 783.46 661.544 783.46 606.572 c 1
 783.459 606.572 l 1
EndSplineSet
EndChar

StartChar: share
Encoding: 29 115 29
Width: 1024
LayerCount: 2
Fore
SplineSet
744.726 820.364 m 0
 693.312 820.364 651.634 778.686 651.634 727.272 c 1
 651.634 727.272 651.634 727.272 651.634 727.272 c 1
 651.634 675.858 693.312 634.18 744.726 634.18 c 0
 796.14 634.18 837.818 675.858 837.818 727.272 c 1
 837.818 727.272 837.818 727.272 837.818 727.272 c 1
 837.818 778.686 796.14 820.364 744.726 820.364 c 0
535.274 634.182 m 0
 522.422 634.182 512 623.762 512 610.908 c 0
 512 598.054 522.42 587.634 535.274 587.634 c 0
 548.126 587.634 558.548 598.054 558.548 610.908 c 0
 558.548 623.762 548.128 634.182 535.274 634.182 c 0
442.182 587.636 m 1
 442.182 587.636 442.182 587.636 442.182 587.636 c 1
 429.328 587.636 418.908 577.218 418.908 564.364 c 1
 418.908 564.364 418.908 564.364 418.908 564.364 c 1
 418.908 564.364 418.908 564.364 418.908 564.364 c 1
 418.908 551.51 429.328 541.092 442.182 541.092 c 1
 442.182 541.092 442.182 541.092 442.182 541.092 c 1
 442.182 541.092 442.182 541.092 442.182 541.092 c 1
 455.036 541.092 465.456 551.51 465.456 564.364 c 1
 465.456 564.364 465.456 564.364 465.456 564.364 c 1
 465.456 564.364 465.456 564.364 465.456 564.364 c 1
 465.456 577.218 455.036 587.636 442.182 587.636 c 1
 442.182 587.636 442.182 587.636 442.182 587.636 c 1
279.274 541.092 m 1
 279.274 541.092 279.274 541.092 279.274 541.092 c 1
 227.86 541.092 186.182 499.414 186.182 448 c 0
 186.182 396.586 227.86 354.908 279.274 354.908 c 1
 279.274 354.908 279.274 354.908 279.274 354.908 c 1
 279.274 354.908 279.274 354.908 279.274 354.908 c 1
 330.688 354.908 372.366 396.586 372.366 448 c 0
 372.366 499.414 330.688 541.092 279.274 541.092 c 1
 279.274 541.092 279.274 541.092 279.274 541.092 c 1
442.182 354.908 m 0
 429.328 354.908 418.908 344.488 418.908 331.634 c 1
 418.908 331.634 418.908 331.634 418.908 331.634 c 1
 418.908 318.782 429.328 308.362 442.182 308.36 c 0
 455.036 308.358 465.456 318.78 465.456 331.634 c 1
 465.456 331.634 465.456 331.634 465.456 331.634 c 1
 465.456 344.486 455.036 354.906 442.182 354.908 c 0
535.274 308.364 m 0
 522.422 308.364 512 297.944 512 285.09 c 0
 512 272.236 522.42 261.816 535.274 261.816 c 0
 548.126 261.816 558.548 272.236 558.548 285.09 c 0
 558.548 297.944 548.128 308.364 535.274 308.364 c 0
744.726 261.818 m 0
 693.312 261.818 651.634 220.14 651.634 168.726 c 1
 651.634 168.726 651.634 168.726 651.634 168.726 c 1
 651.634 117.312 693.312 75.634 744.726 75.634 c 0
 796.14 75.634 837.818 117.312 837.818 168.726 c 1
 837.818 168.726 837.818 168.726 837.818 168.726 c 1
 837.818 220.14 796.14 261.818 744.726 261.818 c 0
EndSplineSet
EndChar

StartChar: go-down
Encoding: 30 118 30
Width: 1024
LayerCount: 2
Fore
SplineSet
172.544 634.182 m 1
 139.636 601.274 l 1
 512 228.91 l 1
 884.364 601.274 l 1
 851.456 634.182 l 1
 512 294.728 l 1
 172.546 634.182 l 1
 172.544 634.182 l 1
EndSplineSet
EndChar

StartChar: new-window
Encoding: 31 119 31
Width: 1024
LayerCount: 2
Fore
SplineSet
1024 960 m 1
 1024 64 l 1
 512 64 l 1
 512 192 l 1
 896 192 l 1
 896 704 l 1
 256 704 l 1
 256 448 l 1
 128 448 l 1
 128 960 l 1
 1024 960 l 1
256 320 m 1
 256 192 l 1
 384 192 l 1
 384 64 l 1
 256 64 l 1
 256 -64 l 1
 128 -64 l 1
 128 64 l 1
 0 64 l 1
 0 192 l 1
 128 192 l 1
 128 320 l 1
 256 320 l 1
EndSplineSet
EndChar

StartChar: clear
Encoding: 32 120 32
Width: 1024
LayerCount: 2
Fore
SplineSet
384 832 m 1
 0 448 l 1
 384 64 l 1
 1024 64 l 1
 1024 832 l 1
 384 832 l 1
512.126 640 m 1
 640.752 511.374 l 1
 769.378 640 l 1
 832.754 576.624 l 1
 704.128 447.998 l 1
 832.754 319.372 l 1
 769.378 255.996 l 1
 640.752 384.622 l 1
 512.126 255.996 l 1
 448.75 319.372 l 1
 577.376 447.998 l 1
 448.75 576.624 l 1
 512.126 640 l 1
EndSplineSet
EndChar

StartChar: share-telegram
Encoding: 33 8599 33
Width: 1024
LayerCount: 2
Fore
SplineSet
759.044 700.306 m 1
 744.932 699.896 726.774 695.612 704.764 688.424 c 0
 634.316 665.416 453.666 598.454 423.264 587.662 c 0
 392.862 576.87 244.822 527.124 214.136 512.272 c 0
 151.448 478.648 181.95 427.328 252.014 400.68 c 1
 461.47 300.148 401.99 351.384 495.496 165.348 c 1
 514.746 117.82 560.114 36.876 603.578 98.056 c 0
 626.42 132.854 657.02 235.44 674.53 283.276 c 0
 696.786 344.104 778.288 575.448 791.37 636.118 c 0
 801.542 683.282 790.082 701.18 759.032 700.294 c 1
 759.044 700.306 l 1
EndSplineSet
EndChar

StartChar: favorite
Encoding: 34 59649 34
Width: 1024
LayerCount: 2
Fore
SplineSet
512 789.332 m 1
 406.332 564.664 l 1
 170.664 528.664 l 1
 341.332 353.664 l 1
 300.998 106.664 l 1
 511.998 223.33 l 1
 722.998 106.664 l 1
 682.664 353.664 l 1
 853.332 528.664 l 1
 617.664 564.664 l 1
 511.996 789.332 l 1
 512 789.332 l 1
EndSplineSet
EndChar

StartChar: view-catalog
Encoding: 35 59656 35
Width: 1024
LayerCount: 2
Fore
SplineSet
139.636 820.364 m 1
 139.636 75.638 l 1
 418.91 75.638 l 1
 418.91 122.182 l 1
 186.182 122.182 l 1
 186.182 773.818 l 1
 651.636 773.818 l 1
 651.636 587.636 l 1
 698.18 587.636 l 1
 698.18 820.362 l 1
 139.636 820.362 l 1
 139.636 820.364 l 1
232.728 727.274 m 1
 232.728 541.092 l 1
 418.91 541.092 l 1
 418.91 727.274 l 1
 232.728 727.274 l 1
465.454 727.274 m 1
 465.454 680.73 l 1
 605.09 680.73 l 1
 605.09 727.274 l 1
 465.454 727.274 l 1
465.454 634.182 m 1
 465.454 587.636 l 1
 605.09 587.636 l 1
 605.09 634.182 l 1
 465.454 634.182 l 1
465.454 541.092 m 1
 465.454 75.636 l 1
 884.364 75.636 l 1
 884.364 541.09 l 1
 465.456 541.09 l 1
 465.454 541.092 l 1
512 494.546 m 1
 837.818 494.546 l 1
 837.818 308.364 l 1
 791.274 354.908 l 1
 698.182 261.816 l 1
 651.638 308.36 l 1
 512.002 168.724 l 1
 512.002 494.542 l 1
 512 494.546 l 1
232.728 448 m 1
 232.728 401.456 l 1
 418.91 401.456 l 1
 418.91 448.002 l 1
 232.728 448.002 l 1
 232.728 448 l 1
605.092 448 m 1
 579.306 448 558.548 427.24 558.548 401.456 c 0
 558.548 375.672 579.308 354.912 605.092 354.912 c 0
 630.878 354.912 651.636 375.672 651.636 401.456 c 0
 651.636 427.24 630.876 448.002 605.092 448.002 c 1
 605.092 448 l 1
232.728 354.908 m 1
 232.728 308.364 l 1
 418.91 308.364 l 1
 418.91 354.908 l 1
 232.728 354.908 l 1
232.728 261.818 m 1
 232.728 215.274 l 1
 418.91 215.274 l 1
 418.91 261.818 l 1
 232.728 261.818 l 1
EndSplineSet
EndChar

StartChar: view-categories
Encoding: 36 59657 36
Width: 1024
LayerCount: 2
Fore
SplineSet
139.636 820.364 m 1
 139.636 680.728 l 1
 186.18 680.728 l 1
 186.18 773.818 l 1
 837.816 773.818 l 1
 837.816 541.092 l 1
 884.36 541.092 l 1
 884.36 820.366 l 1
 139.634 820.366 l 1
 139.636 820.364 l 1
139.636 634.182 m 1
 139.636 75.638 l 1
 418.91 75.638 l 1
 418.91 122.182 l 1
 186.182 122.182 l 1
 186.182 587.636 l 1
 558.546 587.636 l 1
 558.546 541.092 l 1
 605.09 541.092 l 1
 605.09 634.184 l 1
 139.636 634.184 l 1
 139.636 634.182 l 1
232.728 494.546 m 1
 232.728 448 l 1
 418.91 448 l 1
 418.91 494.546 l 1
 232.728 494.546 l 1
465.454 494.546 m 1
 465.454 75.636 l 1
 884.364 75.636 l 1
 884.364 494.544 l 1
 465.456 494.544 l 1
 465.454 494.546 l 1
512 448 m 1
 837.818 448 l 1
 837.818 122.182 l 1
 512 122.182 l 1
 512 448 l 1
558.544 401.456 m 1
 558.544 308.364 l 1
 791.27 308.364 l 1
 791.27 401.456 l 1
 558.544 401.456 l 1
232.728 354.908 m 1
 232.728 308.364 l 1
 325.818 308.364 l 1
 325.818 354.908 l 1
 232.726 354.908 l 1
 232.728 354.908 l 1
232.728 261.818 m 1
 232.728 215.274 l 1
 418.91 215.274 l 1
 418.91 261.818 l 1
 232.728 261.818 l 1
651.636 261.818 m 1
 651.636 215.274 l 1
 698.18 215.274 l 1
 698.18 261.818 l 1
 651.636 261.818 l 1
744.726 261.818 m 1
 744.726 215.274 l 1
 791.27 215.274 l 1
 791.27 261.818 l 1
 744.726 261.818 l 1
EndSplineSet
EndChar

StartChar: view-fullscreen
Encoding: 37 59658 37
Width: 1024
LayerCount: 2
Fore
SplineSet
279.274 680.726 m 1
 279.274 215.27 l 1
 744.73 215.27 l 1
 744.73 680.724 l 1
 325.822 680.724 l 1
 279.274 680.726 l 1
325.818 541.092 m 1
 698.182 541.092 l 1
 698.182 261.818 l 1
 325.818 261.818 l 1
 325.818 541.092 l 1
884.364 680.726 m 1
 744.728 820.362 l 1
 884.364 820.362 l 1
 884.364 680.726 l 1
884.364 215.274 m 1
 744.728 75.638 l 1
 884.364 75.638 l 1
 884.364 215.274 l 1
139.636 680.726 m 1
 279.272 820.362 l 1
 139.636 820.362 l 1
 139.636 680.726 l 1
139.636 215.274 m 1
 279.272 75.638 l 1
 139.636 75.638 l 1
 139.636 215.274 l 1
EndSplineSet
EndChar

StartChar: view-list-details
Encoding: 38 59659 38
Width: 1024
LayerCount: 2
Fore
SplineSet
139.636 820.364 m 1
 139.636 494.546 l 1
 465.454 494.546 l 1
 465.454 820.364 l 1
 139.636 820.364 l 1
186.182 773.818 m 1
 418.91 773.818 l 1
 418.91 541.092 l 1
 186.182 541.092 l 1
 186.182 773.818 l 1
139.636 75.638 m 1
 465.454 75.638 l 1
 465.454 401.456 l 1
 139.636 401.456 l 1
 139.636 75.638 l 1
558.544 773.82 m 1
 884.362 773.82 l 1
 884.362 727.276 l 1
 558.544 727.276 l 1
 558.544 773.82 l 1
558.544 354.91 m 1
 744.726 354.91 l 1
 744.726 308.366 l 1
 558.544 308.366 l 1
 558.544 354.91 l 1
558.544 168.74 m 1
 744.726 168.74 l 1
 744.726 122.196 l 1
 558.544 122.196 l 1
 558.544 168.74 l 1
558.544 587.65 m 1
 884.362 587.65 l 1
 884.362 541.106 l 1
 558.544 541.106 l 1
 558.544 587.65 l 1
EndSplineSet
EndChar

StartChar: view-list-icons
Encoding: 39 59660 39
Width: 1024
LayerCount: 2
Fore
SplineSet
139.636 820.364 m 1
 139.636 494.546 l 1
 465.454 494.546 l 1
 465.454 820.364 l 1
 139.636 820.364 l 1
186.182 773.818 m 1
 418.91 773.818 l 1
 418.91 541.092 l 1
 186.182 541.092 l 1
 186.182 773.818 l 1
139.636 75.638 m 1
 465.454 75.638 l 1
 465.454 401.456 l 1
 139.636 401.456 l 1
 139.636 75.638 l 1
558.548 820.366 m 1
 884.366 820.366 l 1
 884.366 494.548 l 1
 558.548 494.548 l 1
 558.548 820.366 l 1
558.544 401.456 m 1
 558.544 75.638 l 1
 884.362 75.638 l 1
 884.362 401.456 l 1
 558.544 401.456 l 1
605.092 354.908 m 1
 837.818 354.908 l 1
 837.818 122.182 l 1
 605.092 122.182 l 1
 605.092 354.908 l 1
EndSplineSet
EndChar

StartChar: view-list-text
Encoding: 40 59661 40
Width: 1024
LayerCount: 2
Fore
SplineSet
139.636 820.364 m 1
 139.636 773.818 l 1
 884.362 773.818 l 1
 884.362 820.364 l 1
 139.636 820.364 l 1
139.636 727.274 m 1
 139.636 680.73 l 1
 558.544 680.73 l 1
 558.544 727.274 l 1
 139.636 727.274 l 1
139.636 541.092 m 1
 139.636 494.546 l 1
 884.362 494.546 l 1
 884.362 541.092 l 1
 139.636 541.092 l 1
139.636 448 m 1
 139.636 401.456 l 1
 605.092 401.456 l 1
 605.092 448.002 l 1
 139.636 448 l 1
139.636 261.818 m 1
 139.636 215.274 l 1
 884.362 215.274 l 1
 884.362 261.818 l 1
 139.636 261.818 l 1
139.636 168.726 m 1
 139.636 122.182 l 1
 744.728 122.182 l 1
 744.728 168.726 l 1
 139.636 168.726 l 1
791.274 122.182 m 1
 791.274 75.638 l 1
 884.366 75.638 l 1
 884.366 122.182 l 1
 791.274 122.182 l 1
EndSplineSet
EndChar

StartChar: view-list-tree
Encoding: 41 59662 41
Width: 1024
LayerCount: 2
Fore
SplineSet
139.636 820.364 m 1
 139.636 494.546 l 1
 465.454 494.546 l 1
 465.454 820.364 l 1
 139.636 820.364 l 1
186.182 773.818 m 1
 418.91 773.818 l 1
 418.91 541.092 l 1
 186.182 541.092 l 1
 186.182 773.818 l 1
418.908 494.548 m 1
 465.454 494.548 l 1
 465.454 215.274 l 1
 418.908 215.274 l 1
 418.908 494.548 l 1
465.454 680.73 m 1
 558.544 680.73 l 1
 558.544 634.184 l 1
 465.452 634.184 l 1
 465.452 680.73 l 1
 465.454 680.73 l 1
465.454 261.808 m 1
 558.544 261.808 l 1
 558.544 215.264 l 1
 465.452 215.264 l 1
 465.452 261.808 l 1
 465.454 261.808 l 1
558.544 820.364 m 1
 558.544 494.546 l 1
 884.362 494.546 l 1
 884.362 820.364 l 1
 558.544 820.364 l 1
605.092 773.818 m 1
 837.818 773.818 l 1
 837.818 541.092 l 1
 605.092 541.092 l 1
 605.092 773.818 l 1
558.544 401.456 m 1
 558.544 75.638 l 1
 884.362 75.638 l 1
 884.362 401.456 l 1
 558.544 401.456 l 1
EndSplineSet
EndChar

StartChar: view-media-playlist
Encoding: 42 59663 42
Width: 1024
LayerCount: 2
Fore
SplineSet
209.456 820.364 m 0
 170.898 820.364 139.638 789.104 139.638 750.546 c 0
 139.638 711.988 170.898 680.728 209.456 680.728 c 0
 248.014 680.728 279.274 711.988 279.274 750.546 c 0
 279.274 789.104 248.014 820.364 209.456 820.364 c 0
325.818 773.818 m 1
 325.818 727.274 l 1
 372.364 727.274 l 1
 372.364 773.818 l 1
 325.818 773.818 l 1
418.908 773.818 m 1
 418.908 727.274 l 1
 884.364 727.274 l 1
 884.364 773.818 l 1
 418.91 773.818 l 1
 418.908 773.818 l 1
418.908 680.726 m 1
 418.908 634.182 l 1
 558.544 634.182 l 1
 558.544 680.726 l 1
 418.908 680.726 l 1
209.456 541.092 m 0
 170.896 541.092 139.638 509.832 139.638 471.274 c 0
 139.638 432.716 170.898 401.456 209.456 401.456 c 0
 248.016 401.456 279.274 432.716 279.274 471.274 c 0
 279.274 509.832 248.014 541.092 209.456 541.092 c 0
325.818 494.546 m 1
 325.818 448 l 1
 372.364 448 l 1
 372.364 494.546 l 1
 325.818 494.546 l 1
418.908 494.546 m 1
 418.908 448 l 1
 884.364 448 l 1
 884.364 494.546 l 1
 418.91 494.546 l 1
 418.908 494.546 l 1
418.908 401.456 m 1
 418.908 354.912 l 1
 605.09 354.912 l 1
 605.09 401.456 l 1
 418.908 401.456 l 1
209.456 261.818 m 0
 170.896 261.818 139.638 230.558 139.638 192 c 0
 139.638 153.442 170.898 122.182 209.456 122.182 c 0
 248.016 122.182 279.274 153.442 279.274 192 c 0
 279.274 230.558 248.014 261.818 209.456 261.818 c 0
325.818 215.274 m 1
 325.818 168.73 l 1
 372.364 168.73 l 1
 372.364 215.274 l 1
 325.818 215.274 l 1
418.908 215.274 m 1
 418.908 168.73 l 1
 884.364 168.73 l 1
 884.364 215.274 l 1
 418.91 215.274 l 1
 418.908 215.274 l 1
418.908 122.182 m 1
 418.908 75.638 l 1
 744.726 75.638 l 1
 744.726 122.182 l 1
 418.908 122.182 l 1
EndSplineSet
EndChar

StartChar: linkedin
Encoding: 43 60105 43
Width: 1024
LayerCount: 2
Fore
SplineSet
928 960 m 2
 96 960 l 2
 43.2 960 0 916.8 0 864 c 2
 0 32 l 2
 0 -20.8 43.2 -64 96 -64 c 2
 928 -64 l 2
 980.8 -64 1024 -20.8 1024 32 c 2
 1024 864 l 2
 1024 916.8 980.8 960 928 960 c 2
384 128 m 1
 256 128 l 1
 256 576 l 1
 384 576 l 1
 384 128 l 1
320 640 m 0
 284.6 640 256 668.6 256 704 c 0
 256 739.4 284.6 768 320 768 c 0
 355.4 768 384 739.4 384 704 c 0
 384 668.6 355.4 640 320 640 c 0
832 128 m 1
 704 128 l 1
 704 384 l 2
 704 419.4 675.4 448 640 448 c 0
 604.6 448 576 419.4 576 384 c 2
 576 128 l 1
 448 128 l 1
 448 576 l 1
 576 576 l 1
 576 496.6 l 1
 602.4 532.8 642.8 576 688 576 c 0
 767.6 576 832 504.4 832 416 c 2
 832 128 l 1
EndSplineSet
EndChar

StartChar: i
Encoding: 44 105 44
Width: 1024
VWidth: 0
Flags: H
LayerCount: 2
Fore
SplineSet
838.581054688 607.219726562 m 0
 829.088867188 563.713867188 738.118164062 435.565429688 738.118164062 435.565429688 c 2
 730.208007812 422.91015625 727.043945312 416.580078125 738.118164062 402.342773438 c 0
 746.029296875 391.266601562 772.1328125 369.118164062 789.537109375 348.551757812 c 0
 821.609375 312.46875 845.78125 282.030273438 852.514648438 261.049804688 c 0
 858.66796875 240 848.000976562 229.333007812 826.66796875 229.333007812 c 2
 752.000976562 229.333007812 l 2
 723.524414062 229.333007812 715.178710938 252.044921875 664.551757812 302.670898438 c 0
 620.252929688 345.38671875 601.267578125 350.923828125 590.194335938 350.923828125 c 0
 575.1640625 350.923828125 570.66796875 346.666992188 570.66796875 325.333007812 c 2
 570.66796875 258.373046875 l 2
 570.66796875 240 564.796875 229.333007812 517.334960938 229.333007812 c 0
 438.23046875 229.333007812 351.298828125 277.358398438 289.598632812 365.954101562 c 0
 197.047851562 495.68359375 171.734375 593.7734375 171.734375 613.549804688 c 0
 171.734375 624.624023438 176.000976562 634.666992188 197.334960938 634.666992188 c 2
 272.000976562 634.666992188 l 2
 291.083984375 634.666992188 298.26171875 626.314453125 305.418945312 605.638671875 c 0
 341.936523438 499.26171875 403.509765625 406.295898438 428.821289062 406.295898438 c 0
 438.314453125 406.295898438 442.66796875 410.666992188 442.66796875 434.7734375 c 2
 442.66796875 544.728515625 l 2
 439.895507812 595.356445312 413.001953125 599.506835938 413.001953125 617.50390625 c 0
 413.001953125 625.85546875 420.13671875 634.666992188 432.000976562 634.666992188 c 2
 549.334960938 634.666992188 l 2
 565.157226562 634.666992188 570.666992188 626.205078125 570.666992188 607.219726562 c 2
 570.666992188 459.295898438 l 2
 570.666992188 443.4765625 577.537109375 437.939453125 582.283203125 437.939453125 c 0
 591.775390625 437.939453125 599.686523438 443.4765625 617.088867188 460.87890625 c 0
 670.87890625 520.998046875 708.849609375 613.549804688 708.849609375 613.549804688 c 2
 713.596679688 624.624023438 722.349609375 634.666992188 741.334960938 634.666992188 c 2
 816.000976562 634.666992188 l 2
 838.581054688 634.666992188 843.325195312 623.041015625 838.581054688 607.219726562 c 0
EndSplineSet
EndChar
